# xmcd
#
# Track frame offsets:
#	150
#	13603
#	33567
#	51997
#	65055
#	83278
#	97919
#	116554
#	136600
#	148789
#	165157
#	177382
#	192086
#	210076
#	227894
#	248052
#	268413
#	285124
#	295011
#
# Disc length: 4185 seconds
#
# Revision: 1
# Processed by: cddbd v1.5.2PL0 Copyright (c) Steve Scherf et al.
# Submitted via: audiograbber 1.83.01
#
DISCID=fd105713
DTITLE=Various Artist - Gympie Music Muster 2013 [Disc 2]
DYEAR=2013
DGENRE=Country
TTITLE0=Jimmy Barnes - Better Off Alone
TTITLE1=Don Walker - Everybody
TTITLE2=Daryl Braithwaite - As The Days Go By
TTITLE3=John Stone - Mama And Budweiser
TTITLE4=Harmony James - Emmylou's Guitar
TTITLE5=Camille And Stuie - These Days
TTITLE6=Luke O'Shea and Dianna Corcoran - New England Sky
TTITLE7=Rick Price - Shape Of My Heart
TTITLE8=Bill Chambers - Tasmania
TTITLE9=Jeff Brown - Poverty Liner
TTITLE10=The Topp Twins - Honky Tonk Angel
TTITLE11=Jonny Taylor - Young Man
TTITLE12=Round Mountain Girls - The Watch
TTITLE13=Brad Butcher - Conversations And Complications
TTITLE14=Roo Arcus - Little By Little
TTITLE15=The Bushwackers - I Am Australian
TTITLE16=Greg Storer - Muddy Road
TTITLE17=Pete Denahy - Sort Of Dunno Nothin'
TTITLE18=Billy TK Jnr and The Groove Shakers - Which Way Is Up?
EXTD=
EXTT0=
EXTT1=
EXTT2=
EXTT3=
EXTT4=
EXTT5=
EXTT6=
EXTT7=
EXTT8=
EXTT9=
EXTT10=
EXTT11=
EXTT12=
EXTT13=
EXTT14=
EXTT15=
EXTT16=
EXTT17=
EXTT18=
PLAYORDER=
